 <svg  version="1.0" xmlns="http://www.w3.org/2000/svg"  width="603.000000pt" height="86.000000pt" viewBox="0 0 603.000000 86.000000"  preserveAspectRatio="xMidYMid meet">  <g transform="translate(0.000000,86.000000) scale(0.100000,-0.100000)" fill="#c98818" stroke="none"> <path d="M4458 563 l-3 -298 -2227 -3 c-2220 -2 -2228 -2 -2228 -22 0 -20 7 -20 2250 -20 l2250 0 0 320 c0 313 0 320 -20 320 -19 0 -20 -8 -22 -297z"/> <path d="M270 662 c-8 -2 -32 -20 -52 -40 l-37 -35 -15 37 c-19 45 -50 49 -63 9 -5 -16 -8 -68 -8 -117 1 -74 5 -91 20 -102 23 -17 41 -4 59 40 l12 31 31 -30 c54 -54 60 -57 82 -45 29 15 26 30 -14 83 -19 25 -35 49 -35 53 0 3 14 22 30 41 51 57 33 66 -24 11 l-54 -51 54 -61 c30 -35 49 -63 42 -65 -6 -2 -34 21 -61 52 l-49 56 -24 -28 c-13 -16 -24 -41 -24 -55 0 -14 -4 -26 -10 -26 -6 0 -10 45 -10 115 0 70 4 115 10 115 6 0 10 -31 10 -72 l0 -73 75 79 c41 44 74 80 72 81 -1 1 -9 0 -17 -3z"/> <path d="M426 648 c-20 -28 -23 -217 -4 -236 17 -17 152 -16 167 2 20 24 2 44 -49 51 -56 8 -60 15 -60 111 0 47 -4 65 -19 78 -18 16 -20 16 -35 -6z m34 -103 l0 -105 65 0 c37 0 65 -4 65 -10 0 -6 -33 -10 -80 -10 l-80 0 0 115 c0 96 3 115 15 115 12 0 15 -18 15 -105z"/> <path d="M701 651 c-16 -29 11 -44 83 -44 74 -1 102 14 85 44 -8 16 -21 19 -84 19 -63 0 -76 -3 -84 -19z m159 -11 c0 -6 -32 -10 -75 -10 -43 0 -75 4 -75 10 0 6 32 10 75 10 43 0 75 -4 75 -10z"/> <path d="M972 658 c-19 -19 -15 -41 23 -125 53 -117 57 -122 77 -129 28 -8 47 13 83 91 48 106 57 133 52 147 -4 12 -85 -147 -101 -199 -13 -43 -33 -23 -76 75 -23 53 -46 101 -51 107 -13 13 -11 25 4 25 8 0 33 -45 57 -100 24 -55 44 -99 45 -98 1 2 21 47 45 101 23 53 46 97 52 97 5 0 6 5 3 11 -11 16 -42 -18 -67 -73 -12 -26 -27 -47 -32 -45 -6 2 -22 24 -36 49 -42 77 -56 88 -78 66z"/> <path d="M1310 655 c-30 -36 28 -60 116 -48 45 6 62 26 43 49 -16 20 -142 19 -159 -1z m160 -15 c0 -6 -33 -10 -80 -10 -47 0 -80 4 -80 10 0 6 33 10 80 10 47 0 80 -4 80 -10z"/> <path d="M1614 656 c-10 -25 3 -46 29 -46 45 0 89 -13 94 -27 10 -25 -23 -46 -74 -49 -52 -3 -73 -21 -73 -64 0 -27 25 -70 41 -70 5 0 19 16 30 35 12 19 25 35 29 35 5 0 24 -15 42 -34 27 -28 37 -33 56 -25 23 9 30 33 12 44 -5 3 -10 17 -10 30 0 13 5 27 10 30 6 3 10 28 10 54 0 70 -29 94 -120 99 -57 4 -71 1 -76 -12z m150 -27 c37 -29 37 -91 1 -115 -25 -16 -25 -17 -7 -38 41 -48 46 -56 29 -56 -8 0 -25 16 -37 35 -19 31 -26 35 -66 35 -44 0 -44 0 -44 -35 0 -19 -4 -35 -10 -35 -5 0 -10 20 -10 45 l0 45 48 0 c65 0 96 18 100 57 4 43 -26 63 -95 63 -29 0 -53 5 -53 10 0 6 26 10 59 10 44 0 65 -5 85 -21z"/> <path d="M2030 663 c-25 -10 -40 -30 -46 -62 -9 -41 16 -76 63 -91 48 -16 62 -28 44 -39 -8 -5 -26 -5 -43 1 -38 13 -60 4 -56 -24 4 -32 44 -50 101 -45 61 5 87 28 87 77 0 36 -31 80 -57 80 -6 0 -23 6 -38 14 -32 17 -17 31 31 28 44 -3 62 20 35 47 -21 21 -85 28 -121 14z m111 -24 c11 -5 17 -14 14 -20 -4 -6 -13 -5 -25 1 -28 15 -77 12 -94 -6 -30 -29 -15 -49 52 -69 82 -25 103 -82 42 -115 -40 -21 -130 -5 -130 24 0 13 3 13 28 0 53 -27 118 -9 110 32 -2 13 -20 24 -58 37 -80 25 -102 66 -58 107 24 22 86 27 119 9z"/> <path d="M2673 650 c-127 -77 -63 -272 84 -257 57 6 89 29 115 81 28 59 19 107 -32 158 -33 34 -43 38 -86 38 -31 0 -61 -7 -81 -20z m121 -15 c108 -51 72 -215 -47 -215 -49 0 -81 19 -102 60 -31 59 -13 113 49 151 38 23 58 24 100 4z"/> <path d="M2686 594 c-37 -37 -35 -86 3 -125 36 -36 70 -37 110 -3 25 21 31 33 31 65 0 80 -88 118 -144 63z m117 -16 c40 -47 5 -118 -59 -118 -55 0 -93 69 -61 111 33 43 87 46 120 7z"/> <path d="M2730 556 c0 -14 10 -32 22 -40 33 -24 45 -19 20 7 -12 13 -22 31 -22 40 0 9 -4 17 -10 17 -5 0 -10 -11 -10 -24z"/> <path d="M3000 655 c-26 -31 3 -51 70 -47 25 1 50 -18 50 -38 0 -25 -14 -32 -68 -37 -25 -2 -51 -8 -59 -14 -20 -17 -16 -83 5 -103 18 -15 20 -15 34 1 8 10 18 26 21 36 4 10 17 17 32 17 14 0 41 6 59 14 70 29 70 137 2 170 -44 21 -129 21 -146 1z m139 -20 c30 -15 41 -33 41 -68 -1 -47 -46 -77 -115 -77 l-46 0 7 -35 c5 -28 3 -35 -10 -35 -12 0 -16 10 -16 45 l0 45 44 0 c79 0 122 30 110 77 -8 28 -45 43 -104 43 -28 0 -50 5 -50 10 0 15 107 12 139 -5z"/> <path d="M3311 651 c-14 -26 4 -40 61 -44 50 -4 68 -12 68 -30 0 -26 -19 -38 -71 -43 -30 -3 -58 -10 -64 -15 -5 -5 -9 -27 -9 -49 2 -71 40 -88 64 -29 9 21 19 29 37 29 36 0 90 26 102 48 14 26 14 77 1 103 -17 30 -64 49 -124 49 -44 0 -57 -4 -65 -19z m155 -24 c20 -18 27 -32 26 -57 -1 -49 -30 -72 -96 -78 -56 -4 -56 -4 -56 -38 0 -19 -4 -34 -10 -34 -5 0 -10 20 -10 45 l0 45 40 0 c22 0 56 7 75 14 29 12 35 20 35 45 0 42 -31 61 -103 61 -36 0 -56 4 -52 10 3 6 33 10 65 10 47 0 64 -5 86 -23z"/> <path d="M3806 651 c-12 -13 -16 -39 -16 -110 0 -95 10 -131 35 -131 20 0 35 32 35 77 l0 38 59 -63 c53 -57 61 -63 80 -53 24 13 24 13 21 136 -3 141 -19 139 -20 -3 0 -70 -4 -122 -9 -120 -11 4 -117 133 -132 159 -19 36 -24 19 -21 -71 3 -77 1 -90 -12 -90 -14 0 -16 17 -16 115 0 77 4 115 11 115 12 0 22 -12 106 -122 l52 -68 3 100 c3 94 -2 120 -16 84 -3 -9 -6 -28 -6 -42 0 -54 -14 -55 -59 -2 -55 65 -73 75 -95 51z"/> <path d="M4193 655 c-88 -38 -95 -183 -11 -235 55 -34 143 -24 175 19 14 19 10 88 -6 104 -16 16 -45 -3 -49 -34 -6 -37 -22 -51 -51 -44 -59 15 -79 70 -43 115 19 24 64 30 112 15 l25 -8 -24 22 c-29 25 -77 27 -111 4 -35 -24 -40 -33 -40 -80 0 -65 47 -101 116 -88 33 6 34 8 34 50 0 33 4 45 15 45 11 0 15 -12 15 -44 0 -35 -5 -48 -22 -60 -31 -22 -96 -20 -134 3 -65 40 -67 146 -5 190 39 28 109 28 145 0 14 -11 26 -16 26 -10 0 5 -12 19 -26 30 -31 25 -93 27 -141 6z"/> <path d="M2292 648 c-14 -14 -17 -205 -3 -226 16 -26 45 -9 56 33 9 29 18 41 38 46 35 10 65 -13 69 -54 2 -27 7 -32 28 -32 23 0 25 4 31 55 3 30 3 84 0 120 -6 61 -7 65 -31 65 -17 0 -26 -6 -28 -20 -6 -39 -25 -65 -48 -65 -36 0 -54 11 -54 32 0 46 -32 72 -58 46z m30 -47 l-4 -49 76 -4 76 -3 0 53 c0 28 5 52 10 52 6 0 10 -45 10 -115 0 -70 -4 -115 -10 -115 -5 0 -10 24 -10 53 l0 52 -76 0 -76 0 4 -52 c4 -40 1 -53 -9 -53 -10 0 -13 26 -13 115 0 90 3 115 14 115 10 0 12 -12 8 -49z"/> <path d="M3616 645 c-9 -25 -7 -208 3 -223 5 -8 17 -12 27 -10 17 3 19 14 19 123 0 115 -1 120 -21 123 -13 2 -24 -4 -28 -13z m39 -110 c0 -85 -3 -115 -12 -115 -10 0 -13 30 -13 115 0 85 3 115 13 115 9 0 12 -30 12 -115z"/> <path d="M712 558 c-18 -18 -15 -36 7 -48 27 -14 124 -13 139 2 17 17 15 45 -4 52 -28 11 -130 6 -142 -6z m148 -23 c0 -12 -15 -15 -75 -15 -60 0 -75 3 -75 15 0 12 15 15 75 15 60 0 75 -3 75 -15z"/> <path d="M1318 559 c-44 -25 -7 -59 66 -59 81 0 125 34 77 60 -25 13 -121 13 -143 -1z m152 -24 c0 -12 -16 -15 -80 -15 -64 0 -80 3 -80 15 0 12 16 15 80 15 64 0 80 -3 80 -15z"/> <path d="M763 462 c-110 -6 -86 -62 26 -62 74 0 105 16 82 44 -14 17 -42 22 -108 18z m97 -32 c0 -6 -32 -10 -75 -10 -43 0 -75 4 -75 10 0 6 32 10 75 10 43 0 75 -4 75 -10z"/> <path d="M1333 462 c-26 -4 -38 -29 -22 -49 18 -21 148 -14 163 9 5 9 7 20 3 25 -9 9 -112 19 -144 15z m137 -32 c0 -6 -33 -10 -80 -10 -47 0 -80 4 -80 10 0 6 33 10 80 10 47 0 80 -4 80 -10z"/> </g> </svg> 